<?xml version="1.0" encoding="UTF-8" standalone="no"?>
<!-- Generator: Adobe Illustrator 17.0.2, SVG Export Plug-In . SVG Version: 6.00 Build 0)  -->

<svg
   xmlns:dc="http://purl.org/dc/elements/1.1/"
   xmlns:cc="http://creativecommons.org/ns#"
   xmlns:rdf="http://www.w3.org/1999/02/22-rdf-syntax-ns#"
   xmlns:svg="http://www.w3.org/2000/svg"
   xmlns="http://www.w3.org/2000/svg"
   xmlns:sodipodi="http://sodipodi.sourceforge.net/DTD/sodipodi-0.dtd"
   xmlns:inkscape="http://www.inkscape.org/namespaces/inkscape"
   version="1.1"
   id="Layer_1"
   x="0px"
   y="0px"
   width="1052.3622"
   height="744.09448"
   viewBox="0 0 1052.3622 744.09452"
   enable-background="new 0 0 165.543 144.277"
   xml:space="preserve"
   inkscape:version="0.48.4 r9939"
   sodipodi:docname="watashiocaml.png"
   inkscape:export-filename="C:\Users\jun\Downloads\watashiocaml.png"
   inkscape:export-xdpi="200"
   inkscape:export-ydpi="200"><metadata
   id="metadata3061"><rdf:RDF><cc:Work
       rdf:about=""><dc:format>image/svg+xml</dc:format><dc:type
         rdf:resource="http://purl.org/dc/dcmitype/StillImage" /><dc:title></dc:title></cc:Work></rdf:RDF></metadata><defs
   id="defs3059"><linearGradient
     gradientTransform="translate(758,1.28)"
     y2="142.9971"
     x2="-696.73499"
     y1="97.699997"
     x1="-696.73499"
     gradientUnits="userSpaceOnUse"
     id="SVGID_1_-1"><stop
       id="stop3030-7"
       style="stop-color:#F29100"
       offset="0" /><stop
       id="stop3032-4"
       style="stop-color:#EC670F"
       offset="1" /></linearGradient><linearGradient
     gradientTransform="translate(758,1.28)"
     y2="142.1198"
     x2="-666.97198"
     y1="142.1198"
     x1="-666.97198"
     gradientUnits="userSpaceOnUse"
     id="SVGID_2_-0"><stop
       id="stop3037-9"
       style="stop-color:#F29100"
       offset="0" /><stop
       id="stop3039-4"
       style="stop-color:#EC670F"
       offset="1" /></linearGradient><linearGradient
     gradientTransform="translate(758,1.28)"
     y2="142.9666"
     x2="-675.22803"
     y1="-1.2803"
     x1="-675.22803"
     gradientUnits="userSpaceOnUse"
     id="SVGID_3_-8"><stop
       id="stop3044-8"
       style="stop-color:#F29100"
       offset="0" /><stop
       id="stop3046-2"
       style="stop-color:#EC670F"
       offset="1" /></linearGradient><linearGradient
     gradientTransform="translate(758,1.28)"
     y2="141.96719"
     x2="-735.13702"
     y1="90.833397"
     x1="-735.13702"
     gradientUnits="userSpaceOnUse"
     id="SVGID_4_-4"><stop
       id="stop3051-5"
       style="stop-color:#F29100"
       offset="0" /><stop
       id="stop3053-5"
       style="stop-color:#EC670F"
       offset="1" /></linearGradient><linearGradient
     gradientTransform="translate(758,1.28)"
     y2="142.9971"
     x2="-696.73499"
     y1="97.699997"
     x1="-696.73499"
     gradientUnits="userSpaceOnUse"
     id="linearGradient3158"><stop
       id="stop3160"
       style="stop-color:#F29100"
       offset="0" /><stop
       id="stop3162"
       style="stop-color:#EC670F"
       offset="1" /></linearGradient><linearGradient
     gradientTransform="translate(758,1.28)"
     y2="142.1198"
     x2="-666.97198"
     y1="142.1198"
     x1="-666.97198"
     gradientUnits="userSpaceOnUse"
     id="linearGradient3165"><stop
       id="stop3167"
       style="stop-color:#F29100"
       offset="0" /><stop
       id="stop3169"
       style="stop-color:#EC670F"
       offset="1" /></linearGradient><linearGradient
     gradientTransform="translate(758,1.28)"
     y2="142.9666"
     x2="-675.22803"
     y1="-1.2803"
     x1="-675.22803"
     gradientUnits="userSpaceOnUse"
     id="linearGradient3172"><stop
       id="stop3174"
       style="stop-color:#F29100"
       offset="0" /><stop
       id="stop3176"
       style="stop-color:#EC670F"
       offset="1" /></linearGradient><linearGradient
     gradientTransform="translate(758,1.28)"
     y2="141.96719"
     x2="-735.13702"
     y1="90.833397"
     x1="-735.13702"
     gradientUnits="userSpaceOnUse"
     id="linearGradient3179"><stop
       id="stop3181"
       style="stop-color:#F29100"
       offset="0" /><stop
       id="stop3183"
       style="stop-color:#EC670F"
       offset="1" /></linearGradient></defs><sodipodi:namedview
   pagecolor="#ffffff"
   bordercolor="#666666"
   borderopacity="1"
   objecttolerance="10"
   gridtolerance="10"
   guidetolerance="10"
   inkscape:pageopacity="0"
   inkscape:pageshadow="2"
   inkscape:window-width="1344"
   inkscape:window-height="943"
   id="namedview3057"
   showgrid="false"
   inkscape:zoom="0.84191547"
   inkscape:cx="526.18109"
   inkscape:cy="372.04724"
   inkscape:window-x="0"
   inkscape:window-y="0"
   inkscape:window-maximized="0"
   inkscape:current-layer="Layer_1" />

<text
   xml:space="preserve"
   style="font-size:36.45533752px;font-style:normal;font-variant:normal;font-weight:normal;font-stretch:normal;line-height:125%;letter-spacing:0px;word-spacing:0px;fill:#552200;fill-opacity:1;stroke:none;font-family:Kozuka Mincho Pro;-inkscape-font-specification:Kozuka Mincho Pro"
   x="57.098698"
   y="462.23657"
   id="text3063"
   sodipodi:linespacing="125%"><tspan
     sodipodi:role="line"
     id="tspan3065"
     x="57.098698"
     y="462.23657"
     style="font-size:65.61959839px;font-style:normal;font-variant:normal;font-weight:bold;font-stretch:normal;fill:#552200;font-family:MS PGothic;-inkscape-font-specification:MS PGothic Bold">ワタシハオーキャメルチョトデキル</tspan></text>
<g
   id="g3099"
   transform="matrix(3.6455333,0,0,3.6455333,221.17888,317.37299)"><g
     transform="matrix(0.43220469,0,0,0.43220469,46.99727,-48.296114)"
     id="g3025">
	<path
   style="fill:none"
   inkscape:connector-curvature="0"
   id="path3027"
   d="m 82.91,97.9 0.023,-0.061 C 82.899,97.685 82.887,97.65 82.91,97.9 z" />
	
		<linearGradient
   gradientTransform="translate(758,1.28)"
   y2="142.9971"
   x2="-696.73499"
   y1="97.699997"
   x1="-696.73499"
   gradientUnits="userSpaceOnUse"
   id="SVGID_1_">
		<stop
   id="stop3030"
   style="stop-color:#F29100"
   offset="0" />
		<stop
   id="stop3032"
   style="stop-color:#EC670F"
   offset="1" />
	</linearGradient>
	<path
   inkscape:connector-curvature="0"
   style="fill:url(#SVGID_1_)"
   id="path3034"
   d="m 82.223,134.04 c -0.459,-0.978 -1.853,-3.524 -2.553,-4.34 -1.52,-1.779 -1.875,-1.913 -2.322,-4.159 -0.777,-3.911 -2.834,-11.004 -5.258,-15.899 -1.252,-2.526 -3.334,-4.648 -5.24,-6.48 -1.664,-1.607 -5.414,-4.311 -6.068,-4.177 -6.125,1.223 -8.025,7.23 -10.906,11.989 -1.594,2.632 -3.283,4.871 -4.539,7.671 -1.16,2.575 -1.057,5.426 -3.043,7.637 -2.037,2.27 -3.361,4.684 -4.359,7.617 -0.189,0.558 -0.727,6.417 -1.311,7.798 l 9.103,-0.641 c 8.483,0.578 6.033,3.829 19.273,3.121 l 20.906,-0.647 c -0.648,-1.916 -1.541,-4.135 -1.885,-4.856 -0.583,-1.214 -1.316,-3.59 -1.798,-4.634 z" />
	
		<linearGradient
   gradientTransform="translate(758,1.28)"
   y2="142.1198"
   x2="-666.97198"
   y1="142.1198"
   x1="-666.97198"
   gradientUnits="userSpaceOnUse"
   id="SVGID_2_">
		<stop
   id="stop3037"
   style="stop-color:#F29100"
   offset="0" />
		<stop
   id="stop3039"
   style="stop-color:#EC670F"
   offset="1" />
	</linearGradient>
	<path
   inkscape:connector-curvature="0"
   style="fill:url(#SVGID_2_)"
   id="path3041"
   d="M 91.028,143.4" />
	
		<linearGradient
   gradientTransform="translate(758,1.28)"
   y2="144.41104"
   x2="-578.1853"
   y1="0.13447528"
   x1="-774.79755"
   gradientUnits="userSpaceOnUse"
   id="SVGID_3_">
		<stop
   id="stop3044"
   style="stop-color:#e58900;stop-opacity:1"
   offset="0" />
		<stop
   id="stop3046"
   style="stop-color:#e6000f;stop-opacity:1"
   offset="1" />
	</linearGradient>
	<path
   inkscape:connector-curvature="0"
   style="fill:url(#SVGID_3_);fill-opacity:1"
   id="path3048"
   d="m 108.725,90.75 c -1.607,1.16 -4.748,3.95 -11.58,5.005 -3.066,0.474 -5.934,0.513 -9.082,0.356 -1.541,-0.074 -2.994,-0.153 -4.539,-0.173 -0.91,-0.007 -3.963,-0.104 -3.812,0.188 l -0.34,0.848 c 0.053,0.279 0.164,0.976 0.195,1.145 0.125,0.685 0.16,1.23 0.186,1.86 0.047,1.295 -0.107,2.645 -0.041,3.952 0.137,2.711 1.143,5.182 1.27,7.917 0.139,3.045 1.645,6.267 3.102,8.754 0.553,0.947 1.395,1.055 1.762,2.221 0.43,1.336 0.023,2.753 0.232,4.177 0.82,5.521 2.41,11.292 4.896,16.275 0.018,0.042 0.037,0.087 0.059,0.125 3.07,-0.516 6.146,-1.62 10.135,-2.21 7.314,-1.085 17.486,-0.526 24.02,-1.138 16.533,-1.554 25.506,6.781 40.355,3.365 V 20.857 C 165.543,9.339 156.209,0 144.688,0 H 20.856 C 9.339,0 0.001,9.339 0.001,20.857 v 45.507 c 2.984,-1.079 7.276,-7.428 8.621,-8.972 2.353,-2.7 2.78,-6.144 3.952,-8.313 2.669,-4.94 3.128,-8.337 9.195,-8.337 2.828,0 3.951,0.652 5.864,3.219 1.331,1.785 3.63,5.083 4.706,7.288 1.242,2.544 3.266,5.986 4.156,6.681 0.659,0.516 1.313,0.903 1.923,1.132 0.984,0.369 1.798,-0.308 2.456,-0.832 0.84,-0.669 1.202,-2.032 1.98,-3.85 1.121,-2.623 2.343,-5.766 3.038,-6.863 1.203,-1.896 1.613,-4.146 2.912,-5.236 1.916,-1.607 4.416,-1.72 5.104,-1.856 3.849,-0.76 5.599,1.855 7.495,3.546 1.241,1.108 2.937,3.34 4.141,6.331 0.941,2.336 2.139,4.497 2.64,5.846 0.484,1.302 1.679,3.389 2.387,5.891 0.643,2.272 2.364,4.013 3.018,5.093 0,0 1.001,2.804 7.088,5.367 1.32,0.556 3.988,1.46 5.58,2.039 2.645,0.961 5.207,0.836 8.469,0.445 2.326,0 3.586,-3.368 4.643,-6.065 0.625,-1.594 1.224,-6.162 1.632,-7.459 0.395,-1.262 -0.529,-2.238 0.258,-3.344 0.92,-1.291 1.467,-1.361 1.998,-3.044 1.141,-3.604 7.736,-3.786 11.443,-3.786 3.09,0 2.697,3 7.939,1.974 3.002,-0.589 5.895,0.387 9.082,1.231 2.684,0.712 5.207,1.523 6.719,3.293 0.978,1.146 3.406,6.888 0.932,7.133 0.238,0.291 0.412,0.816 0.857,1.104 -0.551,2.166 -2.949,0.623 -4.281,0.345 -1.795,-0.372 -3.062,0.056 -4.818,0.833 -3.002,1.337 -7.393,1.181 -10.008,3.359 -2.219,1.846 -2.215,5.967 -3.25,8.276 -0.001,-0.001 -2.874,7.394 -9.147,11.917 z" />
	
		<linearGradient
   gradientTransform="translate(758,1.28)"
   y2="141.96719"
   x2="-735.13702"
   y1="90.833397"
   x1="-735.13702"
   gradientUnits="userSpaceOnUse"
   id="SVGID_4_">
		<stop
   id="stop3051"
   style="stop-color:#F29100"
   offset="0" />
		<stop
   id="stop3053"
   style="stop-color:#EC670F"
   offset="1" />
	</linearGradient>
	<path
   inkscape:connector-curvature="0"
   style="fill:url(#SVGID_4_)"
   id="path3055"
   d="m 39.35,101.251 c -1.428,-0.145 -2.754,-0.308 -4.141,-0.588 -2.59,-0.522 -5.42,-1.031 -7.971,-1.642 -1.549,-0.375 -6.709,-2.202 -7.83,-2.717 -2.629,-1.212 -4.375,-4.505 -6.43,-4.166 -1.312,0.214 -2.59,0.664 -3.406,1.987 -0.666,1.079 -0.892,2.934 -1.353,4.178 -0.535,1.444 -1.459,2.792 -2.268,4.168 -1.488,2.524 -4.166,4.807 -5.32,7.266 -0.232,0.506 -0.438,1.072 -0.631,1.662 v 9.434 16.321 2.358 c 1.346,0.23 2.754,0.513 4.33,0.934 11.631,3.103 14.469,3.366 25.877,2.061 l 1.07,-0.142 c 0.873,-1.816 1.547,-8.004 2.113,-9.919 0.441,-1.468 1.047,-2.638 1.277,-4.137 0.217,-1.424 -0.02,-2.781 -0.142,-4.075 -0.32,-3.242 2.361,-4.4 3.641,-7.184 1.154,-2.519 1.82,-5.385 2.775,-7.96 0.916,-2.471 2.346,-5.963 4.785,-7.207 -0.296,-0.345 -5.095,-0.504 -6.376,-0.632 z" />
</g><text
     sodipodi:linespacing="125%"
     id="text3067"
     y="64.802368"
     x="-23.751938"
     style="font-size:10.00000095px;font-style:normal;font-variant:normal;font-weight:normal;font-stretch:normal;line-height:125%;letter-spacing:0px;word-spacing:0px;fill:#e6090e;fill-opacity:0.90980392;stroke:none;font-family:Kozuka Mincho Pro;-inkscape-font-specification:Kozuka Mincho Pro"
     xml:space="preserve"><tspan
       style="font-size:18px;font-style:normal;font-variant:normal;font-weight:bold;font-stretch:normal;fill:#e6090e;fill-opacity:0.90980392;font-family:Arial;-inkscape-font-specification:Arial Bold"
       y="64.802368"
       x="-23.751938"
       id="tspan3069"
       sodipodi:role="line">I can write OCaml a little.</tspan></text>
</g></svg>